<svg xmlns="http://www.w3.org/2000/svg" width="20" height="20" viewBox="0 0 100 100"><path fill="#60be92" d="M78,50c0,15.464-12.536,28-28,28S22,65.464,22,50c0-15.464,12.536-28,28-28 c7.623,0,14.522,3.058,19.569,8H59v7h22V15h-7v10.951C67.853,19.809,59.377,16,50,16c-18.778,0-34,15.222-34,34 c0,18.778,15.222,34,34,34s34-15.222,34-34H78z"/><path fill="#1f212b" d="M50,85c-19.299,0-35-15.701-35-35s15.701-35,35-35c8.541,0,16.622,3.053,23,8.646V15 c0-0.552,0.448-1,1-1h7c0.552,0,1,0.448,1,1v22c0,0.552-0.448,1-1,1H59c-0.552,0-1-0.448-1-1v-7c0-0.552,0.448-1,1-1h7.947 C62.153,25.114,56.226,23,50,23c-14.888,0-27,12.112-27,27s12.112,27,27,27s27-12.112,27-27c0-0.552,0.448-1,1-1h6 c0.552,0,1,0.448,1,1C85,69.299,69.299,85,50,85z M50,17c-18.196,0-33,14.804-33,33s14.804,33,33,33 c17.862,0,32.455-14.264,32.985-32h-4.002C78.454,66.529,65.656,79,50,79c-15.991,0-29-13.009-29-29s13.009-29,29-29 c7.614,0,14.812,2.942,20.269,8.286c0.29,0.284,0.38,0.716,0.226,1.092C70.342,30.754,69.976,31,69.569,31H60v5h20V16h-5v9.951 c0,0.404-0.244,0.769-0.617,0.924c-0.372,0.156-0.803,0.07-1.09-0.216C67.06,20.43,58.788,17,50,17z"/><path fill="#1f212b" d="M26.936 46c-.032 0-.063-.003-.096-.009-.271-.052-.448-.315-.396-.586C28.625 34.161 38.532 26 50 26c.109 0 .216.003.324.007l.187.005c.276.006.495.234.49.51-.006.276-.214.508-.51.49L50 27c-10.99 0-20.484 7.82-22.574 18.595C27.379 45.834 27.17 46 26.936 46zM69.896 63c-.091 0-.183-.025-.266-.077-.233-.147-.304-.456-.157-.69C71.78 58.569 73 54.339 73 50l-.013-.49c-.005-.276.214-.504.49-.51.287.026.504.214.51.49l.005.187C73.997 49.784 74 49.891 74 50c0 4.527-1.272 8.942-3.68 12.767C70.225 62.917 70.062 63 69.896 63zM64.471 69c-.148 0-.295-.066-.394-.191-.17-.217-.132-.532.085-.702 1.482-1.162 2.81-2.485 3.944-3.933.17-.217.484-.255.702-.085.217.17.255.485.085.702-1.185 1.511-2.569 2.892-4.114 4.103C64.688 68.965 64.579 69 64.471 69zM50 74c-6.346 0-12.33-2.456-16.851-6.916-.197-.194-.199-.51-.005-.707.194-.196.511-.198.707-.005C38.184 70.646 43.919 73 50 73c3.942 0 7.833-1.019 11.255-2.945.239-.137.545-.05.681.19.136.24.05.545-.19.681C58.175 72.937 54.113 74 50 74zM31.515 65c-.148 0-.295-.065-.394-.191C27.771 60.544 26 55.423 26 50c0-.109.003-.216.007-.324l.005-.187c.006-.276.229-.467.51-.49.276.006.495.234.49.51L27 50c0 5.197 1.697 10.104 4.907 14.191.171.217.133.532-.084.702C31.731 64.965 31.623 65 31.515 65z"/></svg>