<svg xmlns="http://www.w3.org/2000/svg" viewBox="0 0 100 100" width="20px" height="20px"><path fill="#60be92" d="M50,15c19.33,0,35,15.67,35,35S69.33,85,50,85c-17.632,0-32.219-13.038-34.646-30C15.121,53.367,15,51.698,15,50s0.121-3.367,0.354-5C17.781,28.038,32.368,15,50,15z"/><path fill="#fefdef" d="M48.977,48.862l-9-8c-0.631-0.539-1.576-0.466-2.115,0.162c-0.539,0.629-0.467,1.576,0.162,2.115l5.995,5.361H11c-0.828,0-1.5,0.672-1.5,1.5s0.672,1.5,1.5,1.5h33.018l-5.995,5.361c-0.629,0.539-0.701,1.486-0.162,2.115c0.297,0.346,0.717,0.523,1.14,0.523c0.346,0,0.692-0.118,0.976-0.361l9-8c0.332-0.284,0.523-0.7,0.523-1.137S49.309,49.147,48.977,48.862z"/><path fill="#1f212b" d="M50,86c-17.799,0-33.119-13.267-35.635-30.858c-0.079-0.547,0.301-1.054,0.848-1.132c0.545-0.073,1.053,0.302,1.131,0.849C18.721,71.472,33.189,84,50,84c18.748,0,34-15.252,34-34S68.748,16,50,16c-16.811,0-31.279,12.528-33.656,29.142c-0.079,0.547-0.59,0.925-1.131,0.849c-0.547-0.078-0.927-0.585-0.848-1.132C16.881,27.267,32.201,14,50,14c19.851,0,36,16.149,36,36S69.851,86,50,86z"/><path fill="#1f212b" d="M65.5 24.227c-.086 0-.174-.022-.254-.069-.637-.376-1.299-.734-1.968-1.066-.248-.123-.349-.423-.226-.671.123-.247.423-.347.67-.226.691.343 1.375.714 2.032 1.102.238.141.316.447.176.685C65.837 24.139 65.67 24.227 65.5 24.227zM68.5 26.249c-.106 0-.212-.033-.303-.103-.323-.247-.651-.487-.984-.721-.226-.159-.28-.471-.122-.696.158-.226.471-.28.697-.122.343.241.683.489 1.016.744.219.168.261.481.093.701C68.799 26.182 68.65 26.249 68.5 26.249zM50 81c-15.254 0-28.438-11.361-30.665-26.427-.041-.273.148-.527.421-.567.271-.044.527.148.568.421C22.48 69.006 35.238 80 50 80c16.542 0 30-13.458 30-30 0-8.439-3.585-16.536-9.836-22.213-.205-.186-.22-.502-.034-.706s.503-.219.706-.034C77.295 32.913 81 41.279 81 50 81 67.094 67.093 81 50 81zM19.83 46c-.024 0-.049-.002-.074-.006-.273-.04-.462-.294-.421-.567C21.562 30.361 34.746 19 50 19c3.666 0 7.256.635 10.672 1.887.259.096.393.383.297.642-.094.261-.382.393-.641.298C57.023 20.614 53.548 20 50 20c-14.762 0-27.52 10.994-29.676 25.573C20.288 45.821 20.074 46 19.83 46z"/><path fill="#1f212b" d="M39.001,59.999c-0.585,0-1.139-0.254-1.52-0.698c-0.348-0.405-0.517-0.922-0.476-1.454c0.041-0.532,0.287-1.018,0.692-1.365L42.709,52H11c-1.103,0-2-0.897-2-2s0.897-2,2-2h31.71l-5.02-4.488c-0.829-0.71-0.926-1.975-0.208-2.812c0.718-0.835,1.982-0.934,2.82-0.217l9.004,8.004C49.747,48.866,50,49.418,50,50.001c0,0.586-0.254,1.139-0.698,1.518l-8.993,7.993C39.939,59.828,39.477,59.999,39.001,59.999z M11,49c-0.551,0-1,0.448-1,1s0.449,1,1,1h33.018c0.208,0,0.393,0.128,0.467,0.321c0.074,0.194,0.021,0.413-0.134,0.552l-5.995,5.361c-0.426,0.365-0.475,0.997-0.116,1.416c0.347,0.404,1.004,0.457,1.412,0.107l8.993-7.994C48.874,50.569,49,50.293,49,50.001s-0.127-0.569-0.349-0.76c-0.002-0.001-0.004-0.003-0.006-0.005l-9-8c-0.412-0.354-1.045-0.305-1.404,0.114c-0.358,0.418-0.31,1.05,0.108,1.408l6.003,5.368c0.154,0.139,0.208,0.357,0.134,0.552C44.412,48.872,44.227,49,44.019,49H11z"/></svg>