<svg xmlns="http://www.w3.org/2000/svg" width="20" height="20" viewBox="0 0 100 100"><path fill="#fefdef" d="M81,48.189V83H19V48.189L50,25L81,48.189z"/><path fill="#b3b2c3" d="M40,83V57c0-0.552,0.448-1,1-1h18c0.552,0,1,0.448,1,1v26"/><path fill="#ceccbe" d="M81 48.19L81 53.19 50 30 19 53.19 19 48.19 50 25z"/><path fill="#f15b6c" d="M15 41L50 15 85 41 85 51 50 25 15 51z"/><path fill="#fefdef" d="M79,17.5v4c0,0.28-0.22,0.5-0.5,0.5H77v16.5c0,0.19-0.11,0.36-0.28,0.45C76.65,38.98,76.58,39,76.5,39c-0.11,0-0.21-0.03-0.3-0.1l-6-4.5C70.07,34.31,70,34.16,70,34V22h-1.5c-0.28,0-0.5-0.22-0.5-0.5v-4c0-0.28,0.22-0.5,0.5-0.5h10C78.78,17,79,17.22,79,17.5z"/><path fill="#1f212b" d="M85.6,40.2L77,33.813V22h1.5c0.276,0,0.5-0.224,0.5-0.5v-4c0-0.276-0.224-0.5-0.5-0.5h-10c-0.276,0-0.5,0.224-0.5,0.5v4c0,0.276,0.224,0.5,0.5,0.5H70v6.607L50.6,14.2c-0.36-0.27-0.84-0.27-1.2,0l-35,26C14.15,40.39,14,40.68,14,41v10c0,0.38,0.21,0.72,0.55,0.89c0.34,0.17,0.74,0.14,1.05-0.09l2.4-1.783V83c0,0.552,0.447,1,1,1h62c0.553,0,1-0.448,1-1V50.017l2.4,1.783c0.18,0.13,0.39,0.2,0.6,0.2c0.15,0,0.31-0.04,0.45-0.11C85.79,51.72,86,51.38,86,51V41C86,40.68,85.85,40.39,85.6,40.2z M59,82H41V57h18V82z M80,82H60V56.5c0-0.276-0.224-0.5-0.5-0.5h-19c-0.276,0-0.5,0.224-0.5,0.5V82H20V48.532L50,26.25l30,22.282V82z M84,49.01L50.6,24.2C50.42,24.07,50.21,24,50,24s-0.42,0.07-0.6,0.2L16,49.01V41.5l34-25.25l20,14.857V34c0,0.157,0.074,0.306,0.2,0.4l3,2.25c0.22,0.166,0.534,0.122,0.7-0.1c0.165-0.221,0.12-0.534-0.101-0.7l-2.8-2.1v-1.9v-2.5V21.5c0-0.276-0.224-0.5-0.5-0.5H69v-3h9v3h-1.5c-0.276,0-0.5,0.224-0.5,0.5v11.57v2.49v1.94l-0.2-0.15c-0.219-0.164-0.533-0.122-0.7,0.1c-0.165,0.221-0.12,0.534,0.101,0.7l1,0.75c0.088,0.066,0.193,0.1,0.3,0.1c0.076,0,0.153-0.018,0.224-0.053C76.893,38.862,77,38.689,77,38.5v-2.198l7,5.198V49.01z"/><path fill="#1f212b" d="M54.5,70h2c0.276,0,0.5-0.224,0.5-0.5S56.776,69,56.5,69h-2c-0.276,0-0.5,0.224-0.5,0.5S54.224,70,54.5,70z"/></svg>