<svg xmlns="http://www.w3.org/2000/svg" width="20" height="20" viewBox="0 0 100 100"><path fill="#f37e98" d="M63.178,31.65c-0.063,0.174-0.808,2.29-1.561,5.815C58.408,33.511,53.724,31,48.5,31C38.851,31,31,39.523,31,50s7.851,19,17.5,19c5.308,0,10.062-2.588,13.274-6.653c0.681,1.449,1.552,2.695,2.621,3.722c2.95,2.835,6.269,2.952,6.969,2.931C79.648,68.982,85,61.528,85,50c0-19.299-15.701-35-35-35S15,30.701,15,50s15.701,35,35,35c7.163,0,16.426-0.833,24.541-7.324l-3.748-4.686C65.598,77.146,59.185,79,50,79c-15.991,0-29-13.009-29-29s13.009-29,29-29c15.99,0,29,13.009,29,29c0,2.171-0.37,13-7.72,13.001C70.739,62.996,66,62.676,66,53c0-11.271,2.796-19.242,2.822-19.317L63.178,31.65z M48.5,63C42.159,63,37,57.168,37,50s5.159-13,11.5-13C54.841,37,60,42.832,60,50S54.841,63,48.5,63z"/><path fill="#1f212b" d="M48.5,36C41.607,36,36,42.28,36,50s5.607,14,12.5,14S61,57.72,61,50S55.393,36,48.5,36z M48.5,62C42.71,62,38,56.617,38,50s4.71-12,10.5-12S59,43.383,59,50S54.29,62,48.5,62z"/><path fill="#1f212b" d="M69.161,32.742l-5.645-2.032c-0.518-0.186-1.092,0.082-1.279,0.601c-0.027,0.074-0.548,1.529-1.166,4.054C57.659,31.934,53.173,30,48.5,30C38.299,30,30,38.972,30,50s8.299,20,18.5,20c4.923,0,9.615-2.129,13.082-5.888c0.606,1.009,1.316,1.906,2.12,2.679c3.307,3.178,6.992,3.23,7.664,3.209C80.255,69.98,86,62.13,86,50c0-19.851-16.149-36-36-36S14,30.149,14,50s16.149,36,36,36c7.326,0,16.808-0.857,25.166-7.543c0.207-0.166,0.34-0.407,0.369-0.67s-0.047-0.528-0.213-0.735l-3.748-4.686c-0.345-0.432-0.975-0.501-1.405-0.156C65.162,76.214,58.942,78,50,78c-15.439,0-28-12.561-28-28s12.561-28,28-28s28,12.561,28,28c0,2.004-0.324,12-6.711,12.001C69.696,61.987,67,60.075,67,53c0-10.972,2.653-18.665,2.766-18.986C69.948,33.496,69.678,32.928,69.161,32.742z M65,53c0,10.637,5.629,10.995,6.28,11.001C77.709,64,80,56.768,80,50c0-16.542-13.458-30-30-30S20,33.458,20,50s13.458,30,30,30c8.97,0,15.385-1.739,20.625-5.618l2.5,3.125C65.443,83.246,56.767,84,50,84c-18.748,0-34-15.252-34-34s15.252-34,34-34s34,15.252,34,34c0,10.918-4.961,17.983-12.667,18c-0.346,0.005-3.458,0.025-6.245-2.652c-0.967-0.928-1.777-2.081-2.408-3.426c-0.147-0.313-0.446-0.528-0.791-0.568c-0.348-0.04-0.685,0.102-0.899,0.374C57.839,65.714,53.287,68,48.5,68C39.402,68,32,59.925,32,50s7.402-18,16.5-18c4.698,0,9.196,2.222,12.341,6.096c0.243,0.298,0.638,0.435,1.01,0.342c0.375-0.09,0.664-0.387,0.745-0.763c0.46-2.158,0.921-3.785,1.213-4.734l3.768,1.356C66.834,36.76,65,43.783,65,53z"/><path fill="#1f212b" d="M64.688 39.991C64.72 39.997 64.751 40 64.783 40c.235 0 .445-.167.491-.406.137-.713.275-1.376.412-1.985.061-.27-.109-.537-.379-.597-.266-.058-.537.109-.597.379-.138.618-.28 1.291-.418 2.015C64.239 39.677 64.417 39.939 64.688 39.991zM63.948 44.997c.02.002.04.003.06.003.25 0 .466-.187.496-.441.125-1.052.268-2.047.418-2.979.044-.273-.141-.53-.414-.574-.279-.047-.53.142-.574.414-.153.945-.297 1.955-.424 3.021C63.478 44.715 63.674 44.964 63.948 44.997zM64.295 46.545c.025-.275-.178-.518-.453-.543-.279-.022-.518.178-.543.453C63.101 48.635 63 50.837 63 53c0 12.54 7.427 12.99 8.274 13 .002 0 .004 0 .006 0 .273 0 .497-.22.5-.494.003-.276-.218-.502-.494-.506C70.541 64.991 64 64.579 64 53 64 50.868 64.099 48.696 64.295 46.545zM48.5 65c-4.544 0-8.759-2.525-11.273-6.755-.141-.238-.449-.316-.685-.174-.237.141-.315.448-.174.685C39.063 63.292 43.599 66 48.5 66c.276 0 .5-.224.5-.5S48.776 65 48.5 65zM35.349 53.397c-.057-.27-.32-.445-.592-.387-.27.056-.443.321-.387.592.222 1.061.544 2.101.958 3.09C35.41 56.885 35.595 57 35.791 57c.064 0 .13-.012.193-.039.255-.107.375-.4.269-.654C35.862 55.375 35.558 54.396 35.349 53.397z"/></svg>