<svg xmlns="http://www.w3.org/2000/svg" width="20" height="20" viewBox="0 0 100 100"><path fill="#f37e98" d="M50,15c19.33,0,35,15.67,35,35S69.33,85,50,85c-17.632,0-32.219-13.038-34.646-30C15.121,53.367,15,51.698,15,50s0.121-3.367,0.354-5C17.781,28.038,32.368,15,50,15z"/><path fill="#fefdef" d="M10.023,48.862l9-8c0.631-0.539,1.576-0.466,2.115,0.162c0.539,0.629,0.467,1.576-0.162,2.115L14.981,48.5H48c0.828,0,1.5,0.672,1.5,1.5s-0.672,1.5-1.5,1.5H14.982l5.995,5.361c0.629,0.539,0.701,1.486,0.162,2.115c-0.297,0.346-0.717,0.523-1.14,0.523c-0.346,0-0.692-0.118-0.976-0.361l-9-8c-0.332-0.284-0.523-0.7-0.523-1.137S9.691,49.147,10.023,48.862z"/><path fill="#1f212b" d="M86,50c0,19.851-16.149,36-36,36c-15.069,0-28.664-9.507-33.828-23.657c-0.188-0.519,0.078-1.092,0.597-1.282c0.519-0.189,1.093,0.078,1.282,0.597C22.928,75.021,35.768,84,50,84c18.748,0,34-15.252,34-34S68.748,16,50,16c-14.232,0-27.072,8.979-31.949,22.343c-0.189,0.519-0.764,0.786-1.282,0.597c-0.52-0.189-0.785-0.764-0.597-1.282C21.336,23.507,34.931,14,50,14C69.851,14,86,30.149,86,50z"/><path fill="#1f212b" d="M66 23.727c0 .087-.022.174-.069.254-.141.238-.447.317-.685.177-.638-.376-1.3-.734-1.969-1.066-.248-.124-.347-.426-.226-.671.123-.247.423-.348.671-.226.689.343 1.373.714 2.031 1.102C65.912 23.389 66 23.556 66 23.727zM69 25.749c0 .106-.033.213-.103.304-.168.22-.481.261-.701.094-.323-.247-.651-.487-.983-.721-.227-.159-.28-.472-.122-.696.159-.227.471-.281.696-.122.344.241.684.489 1.017.744C68.933 25.45 69 25.599 69 25.749zM81 50c0 17.094-13.906 31-31 31-12.183 0-23.286-7.182-28.285-18.295-.113-.249-.002-.548.251-.661.252-.113.548-.001.661.251C27.465 73.051 38.21 80 50 80c16.542 0 30-13.458 30-30 0-8.439-3.585-16.535-9.836-22.213-.204-.187-.219-.503-.034-.706.186-.205.502-.22.706-.034C77.296 32.914 81 41.279 81 50zM61 21.356c0 .058-.01.115-.03.172-.096.26-.383.393-.642.298C57.022 20.614 53.548 20 50 20c-11.79 0-22.535 6.949-27.373 17.705-.113.252-.409.364-.661.251-.253-.113-.364-.412-.251-.661C26.714 26.182 37.817 19 50 19c3.665 0 7.256.635 10.672 1.887C60.875 20.961 61 21.152 61 21.356z"/><path fill="#1f212b" d="M50,50c0,1.103-0.897,2-2,2H16.291l5.019,4.488c0.398,0.341,0.645,0.825,0.685,1.358c0.04,0.53-0.128,1.048-0.476,1.454c-0.38,0.443-0.934,0.698-1.52,0.698c-0.478,0-0.939-0.171-1.302-0.482l-9.006-8.005c-0.871-0.743-0.882-2.264,0.003-3.026l8.997-7.997c0.845-0.722,2.109-0.624,2.825,0.21c0.349,0.407,0.518,0.927,0.477,1.455c-0.04,0.533-0.286,1.018-0.692,1.365L16.29,48H48C49.103,48,50,48.897,50,50z M14.482,51.5c0-0.06,0.011-0.12,0.033-0.179C14.589,51.128,14.775,51,14.982,51H48c0.552,0,1-0.448,1-1s-0.448-1-1-1H14.981c-0.207,0-0.394-0.128-0.467-0.321c-0.075-0.197-0.021-0.414,0.134-0.552l5.994-5.361c0.211-0.181,0.334-0.423,0.354-0.688c0.022-0.265-0.064-0.524-0.238-0.728c-0.357-0.417-0.99-0.465-1.409-0.107l-8.993,7.994c-0.002,0.002-0.004,0.004-0.006,0.005c-0.445,0.383-0.443,1.139-0.002,1.516l9.008,8.007c0.177,0.152,0.401,0.235,0.644,0.235c0.293,0,0.57-0.127,0.76-0.349c0.174-0.203,0.259-0.464,0.238-0.728c-0.02-0.266-0.143-0.508-0.346-0.682l-6.002-5.368C14.541,51.776,14.482,51.64,14.482,51.5z"/></svg>