<svg xmlns="http://www.w3.org/2000/svg" viewBox="0 0 48 48" width="20px" height="20px"><path fill="#90caf9" d="M40,45H8V3h22l10,10V45z"/><path fill="#e1f5fe" d="M38.5,14H29V4.5L38.5,14z"/><rect width="17" height="2" x="15" y="22" fill="#1976d2"/><rect width="13" height="2" x="15" y="26" fill="#1976d2"/><rect width="11" height="2" x="15" y="30" fill="#1976d2"/><rect width="13" height="2" x="15" y="34" fill="#1976d2"/><path fill="#fb8c00" d="M39,27.3v19.5c-7.1-4-7.9-13-8-15.9C34.4,30.6,37.6,28.4,39,27.3z"/><path fill="#ef6c00" d="M47,30.9c-0.1,2.9-1,11.9-8,15.9V27.3C40.3,28.4,43.3,30.6,47,30.9z"/><path fill="#f9a825" d="M48,30c-5.1,0-9-4-9-4v2.64c1.45,1.11,3.92,2.67,6.95,3.18c-0.24,3.27-1.41,10.3-6.95,13.86V48 C48.5,43,48,30,48,30z"/><path fill="#fbc02d" d="M30.005,30C35.102,30,39,26,39,26v2.64c-1.449,1.11-3.918,2.67-6.946,3.18 c0.239,3.27,1.409,10.3,6.946,13.86V48C29.505,43,30.005,30,30.005,30z"/></svg>