<svg xmlns="http://www.w3.org/2000/svg" viewBox="0 0 100 100" width="20px" height="20px"><path fill="#fcba7f" d="M90.903,55.826c0-11.014-11.905-19.942-26.59-19.942s-26.59,8.928-26.59,19.942s11.905,19.942,26.59,19.942h3.324c2.827,2.827,8.06,5.655,13.652,6.436c1.137,0.159,2.003-1.015,1.524-2.058c-1.062-2.311-1.881-5.679-1.881-8.74l0,0C87.239,67.618,90.908,61.885,90.903,55.826"/><path fill="#1f212b" d="M81.498,82.719c-0.092,0-0.185-0.007-0.278-0.02c-5.118-0.715-10.502-3.23-13.788-6.432h-3.119c-14.938,0-27.09-9.171-27.09-20.442s12.152-20.442,27.09-20.442c14.937,0,27.089,9.171,27.089,20.442l0,0c0.005,6.193-3.624,11.961-9.969,15.86c0.046,2.701,0.755,5.907,1.833,8.251c0.304,0.66,0.225,1.404-0.21,1.99C82.679,82.434,82.111,82.719,81.498,82.719z M64.314,36.383c-14.386,0-26.09,8.722-26.09,19.442s11.704,19.442,26.09,19.442h3.324c0.133,0,0.26,0.053,0.354,0.146c2.562,2.562,7.688,5.501,13.368,6.295c0.345,0.044,0.683-0.093,0.895-0.379c0.214-0.288,0.253-0.652,0.105-0.976c-1.188-2.586-1.927-6.015-1.927-8.949c0-0.176,0.092-0.338,0.243-0.429c6.188-3.715,9.734-9.237,9.729-15.151l0,0C90.403,45.105,78.699,36.383,64.314,36.383z M91.403,55.825h0.01H91.403z"/><path fill="#fed5b3" d="M13.32,46.228c-0.006,7.305,4.504,14.216,12.257,18.781l0,0c0,3.946-1.15,8.314-2.587,11.096c-0.51,0.987,0.288,2.136,1.392,2.015c7.155-0.786,13.935-4.319,17.538-7.852h4.086c18.052,0,32.686-10.763,32.686-24.04s-14.634-24.04-32.686-24.04S13.32,32.951,13.32,46.228"/><path fill="#1f212b" d="M24.227,79.129c-0.785,0-1.524-0.384-1.974-1.039c-0.498-0.726-0.556-1.661-0.151-2.443c1.402-2.715,2.369-6.693,2.467-10.076C16.77,60.798,12.314,53.776,12.32,46.227c0-13.806,15.111-25.039,33.686-25.039c18.575,0,33.686,11.233,33.686,25.04s-15.111,25.04-33.686,25.04h-3.684c-3.597,3.366-10.39,7.029-17.83,7.847C24.403,79.124,24.315,79.129,24.227,79.129z M46.006,23.188c-17.472,0-31.686,10.336-31.686,23.04v0.001c-0.005,6.981,4.283,13.513,11.765,17.919c0.305,0.18,0.493,0.507,0.493,0.861c0,3.847-1.06,8.383-2.699,11.556c-0.092,0.178-0.025,0.322,0.023,0.394c0.05,0.072,0.163,0.191,0.371,0.168c7.176-0.788,13.683-4.371,16.947-7.572c0.187-0.184,0.438-0.286,0.7-0.286h4.085c17.472,0,31.686-10.336,31.686-23.04S63.477,23.188,46.006,23.188z M13.32,46.228h0.01H13.32z"/><path fill="#1f212b" d="M61.154 37.268h-9c-.276 0-.5-.224-.5-.5s.224-.5.5-.5h9c.276 0 .5.224.5.5S61.43 37.268 61.154 37.268zM48.154 37.268h-19c-.276 0-.5-.224-.5-.5s.224-.5.5-.5h19c.276 0 .5.224.5.5S48.43 37.268 48.154 37.268zM65.154 43.268h-25c-.276 0-.5-.224-.5-.5s.224-.5.5-.5h25c.276 0 .5.224.5.5S65.43 43.268 65.154 43.268zM36.154 43.268h-12c-.276 0-.5-.224-.5-.5s.224-.5.5-.5h12c.276 0 .5.224.5.5S36.43 43.268 36.154 43.268zM69.154 49.268h-9c-.276 0-.5-.224-.5-.5s.224-.5.5-.5h9c.276 0 .5.224.5.5S69.43 49.268 69.154 49.268zM55.154 49.268h-31c-.276 0-.5-.224-.5-.5s.224-.5.5-.5h31c.276 0 .5.224.5.5S55.43 49.268 55.154 49.268zM61.154 56.268h-32c-.276 0-.5-.224-.5-.5s.224-.5.5-.5h32c.276 0 .5.224.5.5S61.43 56.268 61.154 56.268z"/></svg>