<svg xmlns="http://www.w3.org/2000/svg" viewBox="0 0 100 100" width="20px" height="20px"><path fill="#78ccd3" d="M81,70c0,6.075-4.925,11-11,11H30c-6.075,0-11-4.925-11-11V30c0-6.075,4.925-11,11-11h40 c6.075,0,11,4.925,11,11V70z"/><path fill="#1f212b" d="M70,82H30c-6.617,0-12-5.383-12-12V30c0-6.617,5.383-12,12-12h35c0.552,0,1,0.448,1,1s-0.448,1-1,1 H30c-5.514,0-10,4.486-10,10v40c0,5.514,4.486,10,10,10h40c5.514,0,10-4.486,10-10V35c0-0.552,0.448-1,1-1s1,0.448,1,1v35 C82,76.617,76.617,82,70,82z"/><path fill="#fdfcee" d="M66.5,76.5h-33c-5.523,0-10-4.477-10-10v-33c0-5.523,4.477-10,10-10h33c5.523,0,10,4.477,10,10v33 C76.5,72.023,72.023,76.5,66.5,76.5z"/><path fill="#1f212b" d="M66.5,77h-33C27.71,77,23,72.29,23,66.5v-33C23,27.71,27.71,23,33.5,23h28c0.276,0,0.5,0.224,0.5,0.5 S61.776,24,61.5,24h-28c-5.238,0-9.5,4.262-9.5,9.5v33c0,5.238,4.262,9.5,9.5,9.5h33c5.238,0,9.5-4.262,9.5-9.5v-17 c0-0.276,0.224-0.5,0.5-0.5s0.5,0.224,0.5,0.5v17C77,72.29,72.29,77,66.5,77z"/><path fill="#1f212b" d="M76.5 48c-.276 0-.5-.224-.5-.5v-4c0-.276.224-.5.5-.5s.5.224.5.5v4C77 47.776 76.776 48 76.5 48zM76.5 42c-.276 0-.5-.224-.5-.5v-3c0-.276.224-.5.5-.5s.5.224.5.5v3C77 41.776 76.776 42 76.5 42z"/><path fill="#fbb822" d="M90.69,18.29l-0.23,0.25L58.94,50.06c-0.15,0.15-0.31,0.28-0.49,0.39c-0.16,0.11-0.34,0.21-0.53,0.28 c-2.47,0.96-11.94,4.65-12.04,4.7c-0.36,0.14-0.79,0.07-1.09-0.22c-0.29-0.3-0.36-0.73-0.22-1.09c0.05-0.1,3.74-9.57,4.7-12.04 c0.07-0.19,0.17-0.37,0.28-0.53c0.11-0.18,0.24-0.34,0.39-0.49L81.46,9.54l0.25-0.23c1.03-1.02,4.03-1.62,7.32,1.66 C92.31,14.26,91.71,17.26,90.69,18.29z"/><path fill="#fefdef" d="M58.45,50.45c-0.16,0.11-0.34,0.21-0.53,0.28c-2.47,0.96-11.94,4.65-12.04,4.7 c-0.36,0.14-0.79,0.07-1.09-0.22c-0.29-0.3-0.36-0.73-0.22-1.09c0.05-0.1,3.74-9.57,4.7-12.04c0.07-0.19,0.17-0.37,0.28-0.53 L58.45,50.45z"/><path fill="#444445" d="M46.159,50.159c-0.863,2.16-1.567,3.919-1.586,3.965c-0.146,0.361-0.073,0.791,0.22,1.083 c0.293,0.293,0.722,0.366,1.083,0.22c0.046-0.019,1.805-0.722,3.965-1.586L46.159,50.159z"/><path fill="#7a91c9" d="M79.672 11.136H85.329V23.863999999999997H79.672z" transform="rotate(-45.001 82.5 17.501)"/><path fill="#f58f8f" d="M89.03,10.97c-3.29-3.28-6.29-2.68-7.32-1.66l-0.25,0.23L80,11l9,9l1.46-1.46l0.23-0.25 C91.71,17.26,92.31,14.26,89.03,10.97z"/><path fill="#1f212b" d="M45.5,56c-0.39,0-0.772-0.152-1.06-0.44c-0.427-0.427-0.557-1.065-0.33-1.625 c0.044-0.111,1.805-4.622,3.208-8.218l1.489-3.817c0.176-0.452,0.44-0.855,0.784-1.199L81.373,8.942 c1.304-1.304,4.666-1.661,8.006,1.678c3.34,3.34,2.982,6.703,1.662,8.023l-0.212,0.233L59.298,50.409 c-0.344,0.344-0.748,0.608-1.199,0.784l-3.817,1.489c-3.596,1.403-8.107,3.164-8.219,3.208C45.881,55.964,45.689,56,45.5,56z M84.04,8.997c-0.931,0-1.628,0.32-1.976,0.668L81.797,9.91L50.298,41.409c-0.246,0.246-0.434,0.534-0.56,0.855l-1.489,3.817 c-1.412,3.617-3.184,8.159-3.213,8.231c-0.076,0.186-0.033,0.399,0.11,0.542c0.143,0.142,0.355,0.185,0.542,0.11 c0.072-0.029,4.613-1.801,8.23-3.213l3.817-1.489c0.322-0.125,0.61-0.314,0.855-0.56l31.727-31.749 c0.823-0.824,1.479-3.5-1.646-6.625C86.896,9.552,85.265,8.997,84.04,8.997z"/><path fill="#1f212b" d="M47.5 49.172H48.5V54.82899999999999H47.5z" transform="rotate(-45.001 48 52)"/><path fill="#1f212b" d="M47.5 49.702H48.5V54.298H47.5z" transform="rotate(-45.001 48 52)"/><path fill="#1f212b" d="M85 24.5c-.128 0-.256-.049-.354-.146l-9-9c-.195-.195-.195-.512 0-.707s.512-.195.707 0l9 9c.195.195.195.512 0 .707C85.256 24.451 85.128 24.5 85 24.5zM85.5 17c-.128 0-.256-.049-.354-.146l-5.5-5.5c-.195-.195-.195-.512 0-.707s.512-.195.707 0l5.5 5.5c.195.195.195.512 0 .707C85.756 16.951 85.628 17 85.5 17zM89 20.5c-.128 0-.256-.049-.354-.146l-1.5-1.5c-.195-.195-.195-.512 0-.707s.512-.195.707 0l1.5 1.5c.195.195.195.512 0 .707C89.256 20.451 89.128 20.5 89 20.5zM87 22.5c-.128 0-.256-.049-.354-.146l-9-9c-.195-.195-.195-.512 0-.707s.512-.195.707 0l9 9c.195.195.195.512 0 .707C87.256 22.451 87.128 22.5 87 22.5z"/><path fill="#1f212b" d="M58.5 39c-.128 0-.256-.049-.354-.146-.195-.195-.195-.512 0-.707l20.5-20.5c.195-.195.512-.195.707 0s.195.512 0 .707l-20.5 20.5C58.756 38.951 58.628 39 58.5 39zM55.5 48c-.128 0-.256-.049-.354-.146-.195-.195-.195-.512 0-.707l21-21c.195-.195.512-.195.707 0s.195.512 0 .707l-21 21C55.756 47.951 55.628 48 55.5 48zM78.5 25c-.128 0-.256-.049-.354-.146-.195-.195-.195-.512 0-.707l3.5-3.5c.195-.195.512-.195.707 0s.195.512 0 .707l-3.5 3.5C78.756 24.951 78.628 25 78.5 25zM54.5 43c-.128 0-.256-.049-.354-.146-.195-.195-.195-.512 0-.707l2-2c.195-.195.512-.195.707 0s.195.512 0 .707l-2 2C54.756 42.951 54.628 43 54.5 43z"/><path fill="#1f212b" d="M53.5 39.636H54.5V52.364000000000004H53.5z" transform="rotate(-45.001 54 46)"/></svg>