<svg xmlns="http://www.w3.org/2000/svg" viewBox="0 0 40 40" width="20px" height="20px"><path fill="#ffc49c" d="M1.5 1.5H12.5V12.5H1.5z"/><path fill="#a16a4a" d="M12,2v10H2V2H12 M13,1H1v12h12V1L13,1z"/><path fill="#bae0bd" d="M1.5 14.5H12.5V25.5H1.5z"/><path fill="#5e9c76" d="M12,15v10H2V15H12 M13,14H1v12h12V14L13,14z"/><path fill="#8bb7f0" d="M1.5 27.5H12.5V38.5H1.5z"/><path fill="#4e7ab5" d="M12,28v10H2V28H12 M13,27H1v12h12V27L13,27z"/><path fill="#ffeea3" d="M4.172 30.172H9.829V35.829H4.172z" transform="rotate(-45.001 7 33)"/><path fill="#ffeea3" d="M4 30H10V36H4z"/><path fill="#788b9c" d="M17 6H26V7H17zM17 19H26V20H17zM17 32H26V33H17zM30 6H39V7H30zM30 19H39V20H30zM30 32H39V33H30z"/><path fill="#a16a4a" d="M9.069 6.924L7 8.846 9.846 12 12 12 12 9.652z"/><path fill="#fff" d="M10 3A1 1 0 1 0 10 5A1 1 0 1 0 10 3Z"/><path fill="#e09367" d="M10.463 12L2 12 2 9.5 5.333 6.167z"/><path fill="#fff" d="M7 20l-1.165-1.942C5.291 17.152 5.944 16 7 16h0c1.056 0 1.709 1.152 1.165 2.058L7 20zM7 20l1.165 1.942C8.709 22.848 8.056 24 7 24h0c-1.056 0-1.709-1.152-1.165-2.058L7 20z"/><path fill="#fff" d="M7 20l-2.264.038c-1.056.018-1.728-1.123-1.2-2.038l0 0c.528-.915 1.852-.904 2.365.02L7 20zM7 20l2.264-.038c1.056-.018 1.728 1.123 1.2 2.038l0 0c-.528.915-1.852.904-2.365-.02L7 20z"/><path fill="#fff" d="M7 20l-1.099 1.98C5.388 22.904 4.064 22.915 3.536 22l0 0c-.528-.915.144-2.056 1.2-2.038L7 20zM7 20l1.099-1.98c.513-.923 1.837-.935 2.365-.02l0 0c.528.915-.144 2.056-1.2 2.038L7 20z"/><path fill="#ffeea3" d="M7 18.5A1.5 1.5 0 1 0 7 21.5A1.5 1.5 0 1 0 7 18.5Z"/><path fill="#fff" d="M7 31.5A1.5 1.5 0 1 0 7 34.5A1.5 1.5 0 1 0 7 31.5Z"/></svg>