<svg xmlns="http://www.w3.org/2000/svg" width="20" height="20" viewBox="0 0 64 64"><path fill="#c2cde7" d="M61,63.38a1,1,0,0,1-1,1H4a1,1,0,0,1-1-1v-8A9.37,9.37,0,0,1,8.3,47l14.07-6.73c2.55,3.21,5.91,5.5,9.63,5.5s7.08-2.29,9.63-5.5L55.7,47A9.37,9.37,0,0,1,61,55.41Z"/><path fill="#d6dff2" d="M42.28,44.86,32,50,21.72,44.86a3,3,0,0,1-.78-4.8L21,40H43l.06.06A3,3,0,0,1,42.28,44.86Z"/><path fill="#72caaf" d="M39 53L32 51 25 53 25 47 32 49 39 47 39 53z"/><path fill="#acb7d0" d="M57,60H7a4,4,0,0,0-4,4H3a1,1,0,0,0,1,1H60a1,1,0,0,0,1-1h0A4,4,0,0,0,57,60Z"/><path fill="#faefde" d="M19.07,32.13h0c-.31,0-1.31-.82-1.83-2.77s-.05-3.27.19-3.33c0,0,1.9-.33,1.92-.71a12.86,12.86,0,0,1,.18-1.63,6.09,6.09,0,0,0-.08-1.73,22.42,22.42,0,0,1-.13-5.44c.34-3.38,2.32-5.39,5.31-5.39a1.06,1.06,0,0,0,.63-.21A12.77,12.77,0,0,1,32,9h1.06c6.42,0,11,3.28,12.95,9.07-.73-.08-.49.43-1,.93s-1.78.7-1.3,2a12.8,12.8,0,0,1,1,4.31c0,.38,1.9-.29,1.92-.29.26.09.72,2.37.19,4.33s-1.52,2.77-1.83,2.77a1.09,1.09,0,0,0-1,.76c-1.78,6-6.44,12.05-11.92,12.05S21.86,38.87,20.08,32.88A1.06,1.06,0,0,0,19.07,32.13Z"/><path fill="#cda1a7" d="M19.45,22A7.47,7.47,0,0,0,26,17c3,1,4,4,18,3,1.39-.1,1.6.39,2,0s-.72-2,0-1.93C44.11,12.28,39.47,9,33.06,9H32a12.77,12.77,0,0,0-6.75,1.9,1.06,1.06,0,0,1-.63.21c-3,0-5,2-5.31,5.39a22.42,22.42,0,0,0,.13,5.44Z"/><path fill="#8d6c9f" d="M55 36a1 1 0 0 0-1.34.46c-.34.69-.71 1.38-1.11 2a1 1 0 1 0 1.71 1c.43-.71.84-1.45 1.2-2.2A1 1 0 0 0 55 36zM2.94 38.17l7.73 2.07a1 1 0 0 0 .76-.1 1 1 0 0 0 .47-.61L14 31.81A1 1 0 0 0 12 31.29l-1.47 5.49A24 24 0 1 1 55.1 32.55a1 1 0 0 0 1.92.54A26 26 0 1 0 8.77 37.67L3.46 36.24a1 1 0 1 0-.52 1.93zM47 58a1 1 0 0 0-1 1v2a1 1 0 0 0 2 0V59A1 1 0 0 0 47 58zM52 58a1 1 0 0 0-1 1v2a1 1 0 0 0 2 0V59A1 1 0 0 0 52 58zM56 59v2a1 1 0 0 0 2 0V59a1 1 0 0 0-2 0zM42 58a1 1 0 0 0-1 1v2a1 1 0 0 0 2 0V59A1 1 0 0 0 42 58zM37 58a1 1 0 0 0-1 1v2a1 1 0 0 0 2 0V59A1 1 0 0 0 37 58zM32 54a1 1 0 0 0-1 1v6a1 1 0 0 0 2 0V55A1 1 0 0 0 32 54zM27 58a1 1 0 0 0-1 1v2a1 1 0 0 0 2 0V59A1 1 0 0 0 27 58zM22 58a1 1 0 0 0-1 1v2a1 1 0 0 0 2 0V59A1 1 0 0 0 22 58zM17 58a1 1 0 0 0-1 1v2a1 1 0 0 0 2 0V59A1 1 0 0 0 17 58zM12 58a1 1 0 0 0-1 1v2a1 1 0 0 0 2 0V59A1 1 0 0 0 12 58zM7 58a1 1 0 0 0-1 1v2a1 1 0 0 0 2 0V59A1 1 0 0 0 7 58zM39.4 46.47a1.49 1.49 0 0 0-1.31-.25h0l-4.71 1.35a5 5 0 0 1-2.75 0l-4.71-1.35A1.5 1.5 0 0 0 24 47.66v4.67a1.5 1.5 0 0 0 1.91 1.44l4.71-1.35a5 5 0 0 1 2.75 0l4.71 1.35a1.51 1.51 0 0 0 .41.06 1.5 1.5 0 0 0 1.5-1.5V47.66A1.49 1.49 0 0 0 39.4 46.47zm-1 5.6L34 50.79a7.29 7.29 0 0 0-4.1 0L25.6 52.06V47.9L30 49.17a7.29 7.29 0 0 0 4.1 0L38.4 47.9z"/><path fill="#8d6c9f" d="M55.75,45.38,42.48,39A23.14,23.14,0,0,0,45,33.73c1.23-.46,2.35-2,2.88-4a7.49,7.49,0,0,0,.18-3.34,2.67,2.67,0,0,0-1.79-2.26,2,2,0,0,0-.43-.07,15.31,15.31,0,0,0-.92-3.44l0-.11a5.28,5.28,0,0,1,1.38.36,1,1,0,0,0,1.36-1.14C46,12.41,40.56,8,33,8H32a14.58,14.58,0,0,0-7.31,2C21,10.14,18.42,12.76,18,16.9a23,23,0,0,0,.13,5.6,7.13,7.13,0,0,1,.09,1q0,.28-.09.57a1.9,1.9,0,0,0-.44.07,2.67,2.67,0,0,0-1.79,2.26,7.49,7.49,0,0,0,.18,3.34c.54,2,1.66,3.5,2.88,4A23.14,23.14,0,0,0,21.52,39L8.25,45.38A11.05,11.05,0,0,0,2,55.3V63a3,3,0,0,0,3,3H59a3,3,0,0,0,3-3V55.3A11.05,11.05,0,0,0,55.75,45.38Zm-35-12.78a1,1,0,0,0-1-.71h0c-.29,0-1.24-.78-1.73-2.62a5.56,5.56,0,0,1-.15-2.42c.1-.51.29-.72.33-.73a.61.61,0,0,1,.27.12A1,1,0,0,0,20,25.43a12.12,12.12,0,0,1,.17-1.54,5.7,5.7,0,0,0-.08-1.64A21.23,21.23,0,0,1,20,17.1c.32-3.19,2.19-5.1,5-5.1a1,1,0,0,0,.6-.2A12.08,12.08,0,0,1,32,10h1c6.07,0,10.45,3.1,12.25,8.58a2.29,2.29,0,0,0-1.9.48,2,2,0,0,0-.29,2.3,12.09,12.09,0,0,1,.9,4.07,1,1,0,0,0,1.54.79.63.63,0,0,1,.27-.12c.06,0,.24.23.34.73A5.56,5.56,0,0,1,46,29.26c-.49,1.84-1.44,2.62-1.73,2.62h0a1,1,0,0,0-1,.71C41.59,38.26,37.18,44,32,44S22.41,38.26,20.73,32.6ZM60,63a1,1,0,0,1-1,1H5a1,1,0,0,1-1-1V55.3a9,9,0,0,1,5.12-8.12l13.58-6.5C25.16,43.79,28.4,46,32,46s6.84-2.21,9.3-5.31l13.58,6.5A9,9,0,0,1,60,55.3Z"/><path fill="#8d6c9f" d="M27.92,18.88A21.1,21.1,0,0,0,37.11,21h2.55a1,1,0,0,0,0-2H37.11a19.1,19.1,0,0,1-8.32-1.92l-1.56-.76a2,2,0,0,0-2.55.7l-1.6,2.43a1,1,0,1,0,1.67,1.1l1.6-2.43Z"/></svg>